<?xml version="1.0" encoding="UTF-8"?>
<svg xmlns="http://www.w3.org/2000/svg" 
     viewBox="0 0 1024 1024"
     width="1024" 
     height="1024">
  <!-- Font: notomath -->
  <!-- Character: ⨳ (U+2A33) -->
  <g transform="translate(342.50 296.00)">
    <path d="M82.84235294117646 386.25882352941176 57.43058823529411 360.8470588235294 143.8305882352941 274.4470588235294 109.27058823529411 239.8870588235294 51.33176470588235 298.3341176470588 25.919999999999998 272.9223529411765 83.85882352941175 214.47529411764705 25.919999999999998 155.52 51.33176470588235 130.10823529411766 109.27058823529411 188.55529411764707 143.8305882352941 153.99529411764706 57.43058823529411 67.59529411764709 82.84235294117646 42.18352941176471 169.24235294117645 128.58352941176472 256.1505882352941 42.18352941176471 281.5623529411764 67.59529411764709 195.16235294117644 153.99529411764706 229.2141176470588 188.55529411764707 287.6611764705882 130.10823529411766 313.0729411764706 155.52 254.62588235294115 214.47529411764705 313.0729411764706 272.9223529411765 287.6611764705882 298.3341176470588 229.2141176470588 239.8870588235294 195.16235294117644 274.4470588235294 281.5623529411764 360.8470588235294 256.1505882352941 386.25882352941176 169.24235294117645 299.8588235294118ZM169.24235294117645 248.52705882352942 203.2941176470588 214.47529411764705 169.24235294117645 179.91529411764705 135.19058823529411 214.47529411764705Z" fill="black"/>
  </g>
</svg>