<?xml version="1.0" encoding="UTF-8"?>
<svg xmlns="http://www.w3.org/2000/svg" 
     viewBox="0 0 1024 1024"
     width="1024" 
     height="1024">
  <!-- Font: symbola -->
  <!-- Character: ⨳ (U+2A33) -->
  <g transform="translate(296.00 396.67)">
    <path d="M413.00502512562815 163.356783919598Q413.00502512562815 174.7537688442211 401.60804020100505 174.7537688442211Q397.26633165829145 174.7537688442211 394.2814070351759 171.76884422110552L270.2713567839196 47.75879396984925L231.7386934673367 86.29145728643216L301.4773869346734 156.03015075376885Q304.46231155778895 159.01507537688443 304.46231155778895 163.356783919598Q304.46231155778895 174.7537688442211 293.06532663316585 174.7537688442211Q288.72361809045225 174.7537688442211 285.7386934673367 171.76884422110552L216.0 102.03015075376885L146.26130653266333 171.76884422110552Q143.27638190954775 174.7537688442211 138.93467336683418 174.7537688442211Q127.53768844221106 174.7537688442211 127.53768844221106 163.356783919598Q127.53768844221106 159.01507537688443 130.52261306532662 156.03015075376885L200.26130653266333 86.29145728643216L161.7286432160804 47.75879396984925L37.71859296482412 171.76884422110552Q34.733668341708544 174.7537688442211 30.391959798994975 174.7537688442211Q18.99497487437186 174.7537688442211 18.99497487437186 163.356783919598Q18.99497487437186 159.01507537688443 21.979899497487438 156.03015075376885L145.98994974874373 32.02010050251258L21.70854271356784 -92.2613065326633Q18.99497487437186 -94.9748743718593 18.99497487437186 -99.04522613065325Q18.99497487437186 -110.713567839196 30.663316582914575 -110.713567839196Q34.733668341708544 -110.713567839196 37.447236180904525 -108.0L161.7286432160804 16.281407035175874L200.26130653266333 -22.251256281407024L130.25125628140705 -92.2613065326633Q127.53768844221106 -94.9748743718593 127.53768844221106 -99.04522613065325Q127.53768844221106 -110.713567839196 139.20603015075378 -110.713567839196Q143.27638190954775 -110.713567839196 145.98994974874373 -108.0L216.0 -37.989949748743726L286.0100502512563 -108.0Q288.72361809045225 -110.713567839196 292.79396984924625 -110.713567839196Q304.46231155778895 -110.713567839196 304.46231155778895 -99.04522613065325Q304.46231155778895 -94.9748743718593 301.74874371859295 -92.2613065326633L231.7386934673367 -22.251256281407024L270.2713567839196 16.281407035175874L394.5527638190955 -108.0Q397.26633165829145 -110.713567839196 401.33668341708545 -110.713567839196Q413.00502512562815 -110.713567839196 413.00502512562815 -99.04522613065325Q413.00502512562815 -94.9748743718593 410.29145728643215 -92.2613065326633L286.0100502512563 32.02010050251258L410.0201005025126 156.03015075376885Q413.00502512562815 159.01507537688443 413.00502512562815 163.356783919598ZM254.53266331658293 32.02010050251258 216.0 -6.51256281407035 177.4673366834171 32.02010050251258 216.0 70.55276381909547Z" fill="black"/>
  </g>
</svg>